# xmcd
#
# Track frame offsets:
#	150
#	15942
#	31435
#	47357
#	64004
#	79277
#	92135
#	103772
#	118632
#	134797
#	150315
#	167248
#	181957
#	194821
#
# Disc length: 2765 seconds
#
# Revision: 1
# Processed by: cddbd v1.5.2PL0 Copyright (c) Steve Scherf et al.
# Submitted via: EZCDAudioConverter 2.4.0.1
#
DISCID=b90acb0e
DTITLE=Edson and Hudson - O Chão Vai Tremer
DYEAR=2004
DGENRE=Sertanejo
TTITLE0=Entra Na Arena
TTITLE1=Volta
TTITLE2=Porta-Retrato
TTITLE3=Rabo de Saia
TTITLE4=Quer Namorar Comigo
TTITLE5=Dizem Que Eu Mudei
TTITLE6=Cervejaria
TTITLE7=Somos Assim
TTITLE8=Ou Não
TTITLE9=O Bicho Vai Pegar
TTITLE10=Só Penso Em Você
TTITLE11=Ciúme Exagerado
TTITLE12=Te Dar Tristeza Nunca Mais
TTITLE13=Sapateia Galera
EXTD=
EXTT0=
EXTT1=
EXTT2=
EXTT3=
EXTT4=
EXTT5=
EXTT6=
EXTT7=
EXTT8=
EXTT9=
EXTT10=
EXTT11=
EXTT12=
EXTT13=
PLAYORDER=
